<?xml version="1.0" standalone="no"?>
<svg viewBox="0 0 200 200" xmlns="http://www.w3.org/2000/svg">
  <path fill="#0F62FE" d="M37.4,-65.6C49.9,-57.6,62.3,-50.4,67.3,-39.6C72.4,-28.8,70,-14.4,68.2,-1C66.5,12.4,65.4,24.7,58.7,32.7C52.1,40.7,39.9,44.3,29.2,50C18.4,55.7,9.2,63.6,-0.3,64.1C-9.8,64.6,-19.6,57.7,-32.2,53.1C-44.9,48.5,-60.5,46.2,-68.6,37.8C-76.7,29.3,-77.2,14.6,-78.2,-0.6C-79.2,-15.8,-80.6,-31.5,-72.7,-40.3C-64.8,-49.1,-47.6,-50.9,-33.9,-58.2C-20.3,-65.5,-10.1,-78.4,1.2,-80.4C12.5,-82.4,24.9,-73.6,37.4,-65.6Z" transform="translate(100 100)" />
</svg>
